<svg xmlns="http://www.w3.org/2000/svg" x="0px" y="0px" width="200" height="200" viewBox="0,0,256,256"
style="fill:#000000;">
<g fill="none" fill-rule="nonzero" stroke="none" stroke-width="1" stroke-linecap="butt" stroke-linejoin="miter" stroke-miterlimit="10" stroke-dasharray="" stroke-dashoffset="0" font-family="none" font-weight="none" font-size="none" text-anchor="none" style="mix-blend-mode: normal"><g transform="scale(2.56,2.56)"><path d="M87.574,32.465c-0.77,-4.477 -4.399,-7.902 -8.922,-8.325c-7.083,-0.661 -16.428,-1.14 -28.652,-1.14c-12.224,0 -21.569,0.479 -28.651,1.141c-4.523,0.422 -8.153,3.848 -8.922,8.325c-0.837,4.867 -1.427,10.715 -1.427,17.534c0,6.819 0.59,12.667 1.426,17.535c0.77,4.477 4.399,7.902 8.922,8.325c7.083,0.661 16.428,1.14 28.652,1.14c12.224,0 21.569,-0.479 28.651,-1.141c4.523,-0.422 8.153,-3.848 8.922,-8.325c0.837,-4.867 1.427,-10.715 1.427,-17.534c0,-6.819 -0.59,-12.667 -1.426,-17.535z" fill="#339af0"></path><path d="M42.5,61.5l20,-11.5l-20,-11.5z" fill="#fefdef"></path><path d="M50,78c-10.941,0 -20.612,-0.385 -28.745,-1.145c-4.931,-0.46 -8.967,-4.223 -9.814,-9.15c-0.956,-5.564 -1.441,-11.521 -1.441,-17.705c0,-6.184 0.485,-12.141 1.441,-17.705c0.847,-4.927 4.883,-8.69 9.815,-9.15c8.132,-0.76 17.803,-1.145 28.744,-1.145c10.941,0 20.612,0.385 28.745,1.145c4.931,0.46 8.967,4.224 9.814,9.15v0c0.956,5.561 1.441,11.518 1.441,17.705c0,6.187 -0.485,12.144 -1.441,17.705c-0.847,4.927 -4.883,8.69 -9.815,9.15c-8.132,0.76 -17.803,1.145 -28.744,1.145zM50,24c-10.879,0 -20.488,0.382 -28.559,1.136c-4.033,0.377 -7.335,3.46 -8.03,7.498c-0.936,5.452 -1.411,11.295 -1.411,17.366c0,6.071 0.475,11.914 1.412,17.366c0.695,4.038 3.997,7.121 8.03,7.498c8.07,0.754 17.679,1.136 28.558,1.136c10.879,0 20.488,-0.382 28.559,-1.136c4.034,-0.377 7.335,-3.46 8.03,-7.498c0.936,-5.449 1.411,-11.292 1.411,-17.366c0,-6.074 -0.475,-11.917 -1.412,-17.366v0c-0.694,-4.038 -3.996,-7.121 -8.03,-7.498c-8.07,-0.754 -17.679,-1.136 -28.558,-1.136z" fill="#1f212b"></path><path d="M42.5,62c-0.086,0 -0.173,-0.022 -0.25,-0.067c-0.155,-0.09 -0.25,-0.254 -0.25,-0.433v-23c0,-0.179 0.095,-0.343 0.25,-0.433c0.155,-0.089 0.345,-0.09 0.5,-0.001l20,11.5c0.154,0.09 0.25,0.255 0.25,0.434c0,0.179 -0.096,0.344 -0.251,0.434l-20,11.5c-0.077,0.044 -0.163,0.066 -0.249,0.066zM43,39.364v21.271l18.497,-10.635z" fill="#1f212b"></path><path d="M22.5,29.058c-0.256,0 -0.474,-0.195 -0.498,-0.456c-0.024,-0.275 0.178,-0.518 0.454,-0.542c7.851,-0.704 17.118,-1.06 27.544,-1.06c5.443,0 10.665,0.101 15.521,0.301c0.276,0.011 0.49,0.244 0.479,0.52c-0.011,0.275 -0.261,0.496 -0.52,0.479c-4.842,-0.199 -10.05,-0.3 -15.48,-0.3c-10.396,0 -19.634,0.355 -27.456,1.056c-0.015,0.002 -0.03,0.002 -0.044,0.002z" fill="#1f212b"></path><path d="M77.5,29.058c-0.015,0 -0.03,0 -0.045,-0.002l-0.997,-0.082c-0.275,-0.023 -0.479,-0.265 -0.456,-0.54c0.023,-0.275 0.271,-0.483 0.54,-0.456l1.003,0.082c0.275,0.025 0.478,0.268 0.453,0.543c-0.023,0.26 -0.242,0.455 -0.498,0.455z" fill="#1f212b"></path><path d="M73.5,28.743c-0.012,0 -0.024,0 -0.036,-0.001c-1.614,-0.114 -3.272,-0.218 -4.99,-0.305c-0.276,-0.014 -0.488,-0.249 -0.474,-0.525c0.014,-0.276 0.247,-0.493 0.525,-0.474c1.725,0.088 3.39,0.192 5.01,0.307c0.276,0.02 0.483,0.258 0.463,0.534c-0.018,0.263 -0.237,0.464 -0.498,0.464z" fill="#1f212b"></path></g></g>
</svg>